<svg width="287" height="61" viewBox="0 0 287 61" fill="none" xmlns="http://www.w3.org/2000/svg">
<path d="M54.0261 53.3782C54.0261 53.3782 53.2581 54.3206 52.3388 54.98C47.208 58.66 40.4111 60.5 31.948 60.5C25.6007 60.5 20.0468 59.3267 15.2863 56.98C10.5258 54.6333 6.84967 51.1933 4.25785 46.66C1.66603 42.1267 0.370117 36.74 0.370117 30.5C0.370117 24.58 1.61313 19.38 4.09917 14.9C6.63809 10.3667 10.2878 6.84667 15.0483 4.34C19.8088 1.78 25.4156 0.5 31.8687 0.5C47.5783 0.5 57.1257 7.03333 60.511 20.1H47.4319C46.1095 16.3133 44.6427 15.1133 42.1037 13.46C39.6177 11.8067 36.206 10.98 31.8687 10.98C26.209 10.98 21.7394 12.7133 18.46 16.18C15.1805 19.6467 13.5408 24.42 13.5408 30.5C13.5408 36.6333 15.1805 41.4333 18.46 44.9C21.7394 48.3133 26.2883 50.02 32.1067 50.02C36.8143 50.02 40.5169 49.14 43.2145 47.38C45.9121 45.62 47.7105 42.9267 48.6097 39.3L54.0261 53.3782Z" fill="white"/>
<path d="M93.2419 58.7737L83.0862 30.3737L72.9305 58.7737H61.188L49.2255 25.7633H61.6028L68.0114 46.4537L78.2464 17.3337H88.5608L98.7958 46.5337L107.92 17.0137H119.663L104.985 58.7737H93.2419Z" fill="white"/>
<path d="M157.14 58.7754C154.991 58.7754 153.248 57.0329 153.248 54.8834V53.0954C150.815 55.442 148.197 57.1754 145.393 58.2954C142.643 59.362 139.469 59.8954 135.872 59.8954C130.424 59.8954 126.246 58.802 123.336 56.6154C120.427 54.3754 118.973 51.202 118.973 47.0954C118.973 42.5087 120.877 39.0954 124.685 36.8554C128.494 34.6154 134.497 33.3887 142.696 33.1754L152.851 32.9354V31.3354C152.851 28.9887 152.005 27.202 150.313 25.9754C148.62 24.6954 146.213 24.0554 143.092 24.0554C137.115 24.0554 131.797 25.4797 131.797 29.9036H120.769C120.769 25.4084 124.738 20.802 128.335 18.7754C131.985 16.7487 137.036 15.7354 143.489 15.7354C157.295 15.7354 164.197 21.2287 164.197 32.2154V45.4954V51.0114C164.197 51.0776 164.251 51.1312 164.317 51.1312H168.454V58.7754H157.14ZM152.851 39.9754L142.934 40.2154C138.649 40.322 135.502 40.882 133.492 41.8954C131.535 42.8554 130.557 44.322 130.557 46.2954C130.557 48.002 131.271 49.3087 132.699 50.2154C134.18 51.122 136.296 51.5754 139.046 51.5754C141.268 51.5754 143.304 51.3087 145.155 50.7754C147.007 50.1887 148.567 49.362 149.836 48.2954C151.846 46.6954 152.851 44.6687 152.851 42.2154V39.9754Z" fill="white"/>
<path d="M173.142 58.8973V1.77734H184.963V58.8973H173.142Z" fill="white"/>
<path d="M189.199 58.8973V1.77734H201.021V58.8973H189.199Z" fill="white"/>
<path d="M215.761 40.8974C215.814 42.9774 216.37 44.8174 217.428 46.4174C218.538 48.0174 220.046 49.2708 221.95 50.1774C223.907 51.0841 226.155 51.5374 228.694 51.5374C234.883 51.5374 238.717 49.6441 240.199 45.8574H251.227C250.116 50.7108 247.657 54.3108 243.848 56.6574C240.093 59.0041 234.909 60.1774 228.297 60.1774C220.786 60.1774 214.942 58.2841 210.763 54.4974C206.637 50.7108 204.574 45.4041 204.574 38.5774C204.574 34.2041 205.526 30.3108 207.431 26.8974C209.388 23.4308 212.165 20.7374 215.761 18.8174C219.411 16.8441 223.669 15.8574 228.535 15.8574C235.941 15.8574 241.653 17.7508 245.673 21.5374C249.746 25.2708 251.782 30.5241 251.782 37.2974V40.8974H215.761ZM240.754 33.6174C240.648 30.6841 239.511 28.4174 237.342 26.8174C235.174 25.1641 232.159 24.3374 228.297 24.3374C225.018 24.3374 222.214 25.2174 219.887 26.9774C217.613 28.7374 216.343 30.9508 216.079 33.6174H240.754Z" fill="white"/>
<path d="M286.629 57.9366C282.927 59.1099 279.039 59.6966 274.966 59.6966C269.73 59.6966 265.921 58.5233 263.541 56.1766C261.161 53.7766 259.971 49.9899 259.971 44.8166V26.0166H251.957V17.1366H259.971V6.0166H271.792V17.1366H285.36V26.0166H271.792V44.4166C271.792 46.4966 272.295 48.0433 273.3 49.0566C274.305 50.0166 275.892 50.4966 278.06 50.4966C280.335 50.4966 282.662 50.1233 285.042 49.3766L286.629 57.9366Z" fill="white"/>
</svg>
