<svg width="512" height="512" viewBox="0 0 512 512" fill="none" xmlns="http://www.w3.org/2000/svg">
<g clip-path="url(#clip0_60_880)">
<g clip-path="url(#clip1_60_880)">
<path fill-rule="evenodd" clip-rule="evenodd" d="M16.6214 118.494L0 137.819V494.255L16.6214 512H493.497L512 494.645V129.101L494.499 113.809H363.345V110.868L380.295 100.892V16.1217L363.71 0L16.6214 118.494Z" fill="white"/>
<path fill-rule="evenodd" clip-rule="evenodd" d="M289.873 365.723L346.885 366.163C348.091 366.17 348.968 367.291 348.683 368.454L334.296 426.628C333.918 428.161 331.914 428.551 330.979 427.267L317.303 408.463C303.341 417.943 278.597 430.192 244.047 430.08C197.191 429.924 162.7 404.975 156.737 400.278C156.152 399.81 155.92 399.069 156.28 398.384C158.115 394.894 165.735 381.017 167.932 376.213C168.339 375.326 169.394 375.014 170.229 375.511C177.604 379.952 210.308 398.435 243.012 398.435C266.491 398.435 286.797 390.815 299.774 384.367L288.346 368.66C287.455 367.433 288.346 365.709 289.873 365.723ZM215.363 171.472C246.982 180.277 246.612 206.657 245.199 219.159C244.372 226.517 241.312 235.315 240.092 238.621C239.793 239.43 239.022 239.955 238.152 239.941L197.916 239.374C197.367 239.366 196.988 238.82 197.224 238.323C198.686 235.194 202.944 225.495 204.307 215.477C205.855 204.103 200.006 198.98 191.61 204.848C182.709 211.056 174.734 227.056 169.684 258.041C164.841 287.756 172.387 299.797 182.487 301.202C191.917 302.514 201.147 297.342 209.428 283.116C213.815 275.581 216.276 268.145 217.231 264.916C217.467 264.115 218.437 263.881 219.072 264.427L235.955 278.866C236.661 279.469 236.982 280.363 236.775 281.264C235.869 285.23 232.959 296.632 227.717 305.835C221.975 315.917 200.291 346.249 159.434 334.911C109.811 321.132 120.575 249.733 134.79 215.789C149.013 181.845 179.855 161.581 215.363 171.472ZM358.802 171.472C390.422 180.277 390.051 206.657 388.639 219.159C387.811 226.517 384.751 235.315 383.532 238.621C383.232 239.43 382.462 239.955 381.592 239.941L341.355 239.374C340.799 239.366 340.428 238.82 340.663 238.323C342.126 235.194 346.384 225.495 347.746 215.477C349.294 204.103 343.445 198.98 335.043 204.848C326.148 211.056 318.167 227.056 313.124 258.041C308.28 287.756 315.827 299.797 325.92 301.202C335.357 302.514 344.587 297.342 352.861 283.116C357.254 275.581 359.715 268.145 360.671 264.916C360.906 264.115 361.876 263.881 362.511 264.427L379.395 278.866C380.101 279.469 380.422 280.363 380.215 281.264C379.302 285.23 376.399 296.632 371.156 305.835C365.414 315.917 343.731 346.249 302.874 334.911C253.251 321.132 264.014 249.733 278.23 215.789C292.453 181.845 323.295 161.581 358.802 171.472Z" fill="black"/>
</g>
</g>
<defs>
<clipPath id="clip0_60_880">
<rect width="512" height="512" fill="white"/>
</clipPath>
<clipPath id="clip1_60_880">
<rect width="512" height="512" fill="white"/>
</clipPath>
</defs>
</svg>
